<svg id="visual" viewBox="0 0 1440 3610" width="1440" height="3610" xmlns="http://www.w3.org/2000/svg" xmlns:xlink="http://www.w3.org/1999/xlink" version="1.1"><g stroke-width="1" stroke-linejoin="bevel"><path d="M797 1766.5L971 1877.5L943 1742.5Z" fill="#36454f" stroke="#36454f"></path><path d="M797 1766.5L786 1920.5L971 1877.5Z" fill="#293842" stroke="#293842"></path><path d="M797 1766.5L681 1898.5L786 1920.5Z" fill="#112029" stroke="#112029"></path><path d="M971 1877.5L1097 1753.5L943 1742.5Z" fill="#000000" stroke="#000000"></path><path d="M762 1531.6L659 1708.5L797 1766.5Z" fill="#112029" stroke="#112029"></path><path d="M797 1766.5L659 1708.5L681 1898.5Z" fill="#17262f" stroke="#17262f"></path><path d="M940 1555.6L797 1766.5L943 1742.5Z" fill="#1d2c35" stroke="#1d2c35"></path><path d="M1135 1997.4L1126 1906.5L971 1877.5Z" fill="#112029" stroke="#112029"></path><path d="M971 1877.5L1126 1906.5L1097 1753.5Z" fill="#112029" stroke="#112029"></path><path d="M788 2081.4L942 2080.4L786 1920.5Z" fill="#293842" stroke="#293842"></path><path d="M786 1920.5L942 2080.4L971 1877.5Z" fill="#112029" stroke="#112029"></path><path d="M460 1918.5L681 2009.4L681 1898.5Z" fill="#000000" stroke="#000000"></path><path d="M681 1898.5L681 2009.4L786 1920.5Z" fill="#112029" stroke="#112029"></path><path d="M681 2009.4L788 2081.4L786 1920.5Z" fill="#03151d" stroke="#03151d"></path><path d="M1116 1598.6L940 1555.6L943 1742.5Z" fill="#303f48" stroke="#303f48"></path><path d="M942 2080.4L1135 1997.4L971 1877.5Z" fill="#36454f" stroke="#36454f"></path><path d="M940 1555.6L762 1531.6L797 1766.5Z" fill="#36454f" stroke="#36454f"></path><path d="M1249 1748.5L1116 1598.6L1097 1753.5Z" fill="#293842" stroke="#293842"></path><path d="M1097 1753.5L1116 1598.6L943 1742.5Z" fill="#03151d" stroke="#03151d"></path><path d="M1249 1748.5L1097 1753.5L1126 1906.5Z" fill="#000d18" stroke="#000d18"></path><path d="M762 1531.6L681 1554.6L659 1708.5Z" fill="#000000" stroke="#000000"></path><path d="M803 2187.4L942 2186.4L942 2080.4Z" fill="#36454f" stroke="#36454f"></path><path d="M942 2080.4L1113 2234.4L1135 1997.4Z" fill="#000000" stroke="#000000"></path><path d="M803 2187.4L942 2080.4L788 2081.4Z" fill="#303f48" stroke="#303f48"></path><path d="M631 2228.4L803 2187.4L788 2081.4Z" fill="#293842" stroke="#293842"></path><path d="M1275 1845.5L1249 1748.5L1126 1906.5Z" fill="#36454f" stroke="#36454f"></path><path d="M1246 2007.4L1275 1845.5L1126 1906.5Z" fill="#000d18" stroke="#000d18"></path><path d="M1113 2234.4L1246 2007.4L1135 1997.4Z" fill="#17262f" stroke="#17262f"></path><path d="M1135 1997.4L1246 2007.4L1126 1906.5Z" fill="#1d2c35" stroke="#1d2c35"></path><path d="M966 1388.6L837 1406.6L940 1555.6Z" fill="#293842" stroke="#293842"></path><path d="M940 1555.6L837 1406.6L762 1531.6Z" fill="#23323b" stroke="#23323b"></path><path d="M762 1531.6L661 1371.6L681 1554.6Z" fill="#293842" stroke="#293842"></path><path d="M465 1697.5L460 1918.5L659 1708.5Z" fill="#36454f" stroke="#36454f"></path><path d="M659 1708.5L460 1918.5L681 1898.5Z" fill="#293842" stroke="#293842"></path><path d="M681 2009.4L631 2228.4L788 2081.4Z" fill="#112029" stroke="#112029"></path><path d="M496 1581.6L659 1708.5L681 1554.6Z" fill="#1d2c35" stroke="#1d2c35"></path><path d="M496 1581.6L465 1697.5L659 1708.5Z" fill="#03151d" stroke="#03151d"></path><path d="M1161 1434.6L940 1555.6L1116 1598.6Z" fill="#36454f" stroke="#36454f"></path><path d="M1161 1434.6L966 1388.6L940 1555.6Z" fill="#303f48" stroke="#303f48"></path><path d="M460 1918.5L486 2049.4L681 2009.4Z" fill="#000000" stroke="#000000"></path><path d="M456 1424.6L496 1581.6L681 1554.6Z" fill="#1d2c35" stroke="#1d2c35"></path><path d="M950 2354.3L1113 2234.4L942 2186.4Z" fill="#293842" stroke="#293842"></path><path d="M942 2186.4L1113 2234.4L942 2080.4Z" fill="#17262f" stroke="#17262f"></path><path d="M1440 1706.5L1293 1592.6L1249 1748.5Z" fill="#000000" stroke="#000000"></path><path d="M1249 1748.5L1293 1592.6L1116 1598.6Z" fill="#000000" stroke="#000000"></path><path d="M486 2049.4L631 2228.4L681 2009.4Z" fill="#303f48" stroke="#303f48"></path><path d="M803 2187.4L950 2354.3L942 2186.4Z" fill="#1d2c35" stroke="#1d2c35"></path><path d="M1293 1592.6L1161 1434.6L1116 1598.6Z" fill="#000000" stroke="#000000"></path><path d="M806 1268.7L661 1371.6L837 1406.6Z" fill="#36454f" stroke="#36454f"></path><path d="M837 1406.6L661 1371.6L762 1531.6Z" fill="#1d2c35" stroke="#1d2c35"></path><path d="M810 2368.3L950 2354.3L803 2187.4Z" fill="#03151d" stroke="#03151d"></path><path d="M479 2335.3L674 2325.3L631 2228.4Z" fill="#303f48" stroke="#303f48"></path><path d="M631 2228.4L674 2325.3L803 2187.4Z" fill="#112029" stroke="#112029"></path><path d="M674 2325.3L810 2368.3L803 2187.4Z" fill="#17262f" stroke="#17262f"></path><path d="M1246 2007.4L1440 1843.5L1275 1845.5Z" fill="#000d18" stroke="#000d18"></path><path d="M1275 1845.5L1440 1706.5L1249 1748.5Z" fill="#000000" stroke="#000000"></path><path d="M1440 2057.4L1440 1843.5L1246 2007.4Z" fill="#1d2c35" stroke="#1d2c35"></path><path d="M930 1235.7L837 1406.6L966 1388.6Z" fill="#112029" stroke="#112029"></path><path d="M930 1235.7L806 1268.7L837 1406.6Z" fill="#303f48" stroke="#303f48"></path><path d="M358 2052.4L482 2223.4L486 2049.4Z" fill="#293842" stroke="#293842"></path><path d="M486 2049.4L482 2223.4L631 2228.4Z" fill="#0b1a23" stroke="#0b1a23"></path><path d="M1293 1592.6L1242 1391.6L1161 1434.6Z" fill="#36454f" stroke="#36454f"></path><path d="M1140 1230.7L930 1235.7L966 1388.6Z" fill="#000000" stroke="#000000"></path><path d="M1440 1425.6L1242 1391.6L1293 1592.6Z" fill="#17262f" stroke="#17262f"></path><path d="M460 1918.5L358 2052.4L486 2049.4Z" fill="#03151d" stroke="#03151d"></path><path d="M287 1904.5L358 2052.4L460 1918.5Z" fill="#17262f" stroke="#17262f"></path><path d="M287 1904.5L460 1918.5L465 1697.5Z" fill="#17262f" stroke="#17262f"></path><path d="M1440 1843.5L1440 1706.5L1275 1845.5Z" fill="#17262f" stroke="#17262f"></path><path d="M1268 2347.3L1287 2237.4L1113 2234.4Z" fill="#0b1a23" stroke="#0b1a23"></path><path d="M1113 2234.4L1287 2237.4L1246 2007.4Z" fill="#23323b" stroke="#23323b"></path><path d="M950 2354.3L1122 2358.3L1113 2234.4Z" fill="#000000" stroke="#000000"></path><path d="M1082 2500.3L1122 2358.3L950 2354.3Z" fill="#293842" stroke="#293842"></path><path d="M661 1371.6L456 1424.6L681 1554.6Z" fill="#000d18" stroke="#000d18"></path><path d="M496 1581.6L351 1553.6L465 1697.5Z" fill="#293842" stroke="#293842"></path><path d="M602 1278.7L456 1424.6L661 1371.6Z" fill="#23323b" stroke="#23323b"></path><path d="M1140 1230.7L966 1388.6L1161 1434.6Z" fill="#1d2c35" stroke="#1d2c35"></path><path d="M456 1424.6L351 1553.6L496 1581.6Z" fill="#1d2c35" stroke="#1d2c35"></path><path d="M289 1694.5L287 1904.5L465 1697.5Z" fill="#23323b" stroke="#23323b"></path><path d="M1287 2237.4L1440 2057.4L1246 2007.4Z" fill="#17262f" stroke="#17262f"></path><path d="M351 1553.6L289 1694.5L465 1697.5Z" fill="#112029" stroke="#112029"></path><path d="M496 1214.7L602 1278.7L626 1067.7Z" fill="#23323b" stroke="#23323b"></path><path d="M806 1268.7L602 1278.7L661 1371.6Z" fill="#0b1a23" stroke="#0b1a23"></path><path d="M1440 1706.5L1440 1565.6L1293 1592.6Z" fill="#0b1a23" stroke="#0b1a23"></path><path d="M1242 1260.7L1140 1230.7L1242 1391.6Z" fill="#1d2c35" stroke="#1d2c35"></path><path d="M1242 1391.6L1140 1230.7L1161 1434.6Z" fill="#23323b" stroke="#23323b"></path><path d="M1122 2358.3L1268 2347.3L1113 2234.4Z" fill="#0b1a23" stroke="#0b1a23"></path><path d="M1287 2237.4L1440 2171.4L1440 2057.4Z" fill="#293842" stroke="#293842"></path><path d="M482 2223.4L479 2335.3L631 2228.4Z" fill="#000000" stroke="#000000"></path><path d="M642 2511.3L808 2496.3L810 2368.3Z" fill="#23323b" stroke="#23323b"></path><path d="M290 2342.3L479 2335.3L482 2223.4Z" fill="#0b1a23" stroke="#0b1a23"></path><path d="M313 2163.4L482 2223.4L358 2052.4Z" fill="#000000" stroke="#000000"></path><path d="M1440 2360.3L1440 2171.4L1287 2237.4Z" fill="#293842" stroke="#293842"></path><path d="M161 2018.4L313 2163.4L358 2052.4Z" fill="#000d18" stroke="#000d18"></path><path d="M1440 1425.6L1242 1260.7L1242 1391.6Z" fill="#23323b" stroke="#23323b"></path><path d="M642 2511.3L810 2368.3L674 2325.3Z" fill="#000000" stroke="#000000"></path><path d="M810 2368.3L923 2521.3L950 2354.3Z" fill="#303f48" stroke="#303f48"></path><path d="M1122 2358.3L1263 2546.3L1268 2347.3Z" fill="#1d2c35" stroke="#1d2c35"></path><path d="M1440 1565.6L1440 1425.6L1293 1592.6Z" fill="#000000" stroke="#000000"></path><path d="M808 2496.3L923 2521.3L810 2368.3Z" fill="#112029" stroke="#112029"></path><path d="M923 2521.3L1082 2500.3L950 2354.3Z" fill="#000d18" stroke="#000d18"></path><path d="M626 1067.7L602 1278.7L806 1268.7Z" fill="#1d2c35" stroke="#1d2c35"></path><path d="M602 1278.7L496 1214.7L456 1424.6Z" fill="#000d18" stroke="#000d18"></path><path d="M456 1424.6L281 1406.6L351 1553.6Z" fill="#303f48" stroke="#303f48"></path><path d="M351 1553.6L133 1594.6L289 1694.5Z" fill="#000d18" stroke="#000d18"></path><path d="M800 1074.7L806 1268.7L930 1235.7Z" fill="#000000" stroke="#000000"></path><path d="M1076 1109.7L930 1235.7L1140 1230.7Z" fill="#000d18" stroke="#000d18"></path><path d="M1076 1109.7L956 1103.7L930 1235.7Z" fill="#17262f" stroke="#17262f"></path><path d="M497 2500.3L642 2511.3L479 2335.3Z" fill="#36454f" stroke="#36454f"></path><path d="M479 2335.3L642 2511.3L674 2325.3Z" fill="#0b1a23" stroke="#0b1a23"></path><path d="M830 2707.3L1001 2659.3L923 2521.3Z" fill="#112029" stroke="#112029"></path><path d="M308 1296.7L281 1406.6L456 1424.6Z" fill="#17262f" stroke="#17262f"></path><path d="M129 1766.5L142 1866.5L287 1904.5Z" fill="#293842" stroke="#293842"></path><path d="M129 1766.5L287 1904.5L289 1694.5Z" fill="#112029" stroke="#112029"></path><path d="M287 1904.5L161 2018.4L358 2052.4Z" fill="#112029" stroke="#112029"></path><path d="M1247 1097.7L1076 1109.7L1140 1230.7Z" fill="#0b1a23" stroke="#0b1a23"></path><path d="M1247 1097.7L1140 1230.7L1242 1260.7Z" fill="#293842" stroke="#293842"></path><path d="M142 1866.5L161 2018.4L287 1904.5Z" fill="#112029" stroke="#112029"></path><path d="M332 2494.3L497 2500.3L479 2335.3Z" fill="#17262f" stroke="#17262f"></path><path d="M133 1594.6L129 1766.5L289 1694.5Z" fill="#293842" stroke="#293842"></path><path d="M0 2083.4L173 2207.4L161 2018.4Z" fill="#000000" stroke="#000000"></path><path d="M780 975.7L800 1074.7L956 1103.7Z" fill="#112029" stroke="#112029"></path><path d="M956 1103.7L800 1074.7L930 1235.7Z" fill="#23323b" stroke="#23323b"></path><path d="M1268 2347.3L1440 2360.3L1287 2237.4Z" fill="#23323b" stroke="#23323b"></path><path d="M1440 2516.3L1440 2360.3L1268 2347.3Z" fill="#1d2c35" stroke="#1d2c35"></path><path d="M290 2342.3L482 2223.4L313 2163.4Z" fill="#303f48" stroke="#303f48"></path><path d="M496 1214.7L308 1296.7L456 1424.6Z" fill="#000000" stroke="#000000"></path><path d="M281 1406.6L133 1594.6L351 1553.6Z" fill="#000d18" stroke="#000d18"></path><path d="M292 1121.7L308 1296.7L496 1214.7Z" fill="#293842" stroke="#293842"></path><path d="M127 1440.6L133 1594.6L281 1406.6Z" fill="#36454f" stroke="#36454f"></path><path d="M173 2207.4L290 2342.3L313 2163.4Z" fill="#000d18" stroke="#000d18"></path><path d="M800 1074.7L626 1067.7L806 1268.7Z" fill="#36454f" stroke="#36454f"></path><path d="M161 2018.4L173 2207.4L313 2163.4Z" fill="#293842" stroke="#293842"></path><path d="M0 1878.5L161 2018.4L142 1866.5Z" fill="#112029" stroke="#112029"></path><path d="M1440 1221.7L1247 1097.7L1242 1260.7Z" fill="#36454f" stroke="#36454f"></path><path d="M984 901.7L780 975.7L956 1103.7Z" fill="#23323b" stroke="#23323b"></path><path d="M1130 2628.3L1263 2546.3L1082 2500.3Z" fill="#303f48" stroke="#303f48"></path><path d="M1082 2500.3L1263 2546.3L1122 2358.3Z" fill="#000000" stroke="#000000"></path><path d="M1130 2628.3L1082 2500.3L1001 2659.3Z" fill="#17262f" stroke="#17262f"></path><path d="M1440 1425.6L1440 1221.7L1242 1260.7Z" fill="#000d18" stroke="#000d18"></path><path d="M923 2521.3L808 2496.3L830 2707.3Z" fill="#293842" stroke="#293842"></path><path d="M1001 2659.3L1082 2500.3L923 2521.3Z" fill="#17262f" stroke="#17262f"></path><path d="M638 2635.3L808 2496.3L642 2511.3Z" fill="#293842" stroke="#293842"></path><path d="M463 2701.3L638 2635.3L497 2500.3Z" fill="#112029" stroke="#112029"></path><path d="M497 2500.3L638 2635.3L642 2511.3Z" fill="#0b1a23" stroke="#0b1a23"></path><path d="M158 1240.7L127 1440.6L281 1406.6Z" fill="#17262f" stroke="#17262f"></path><path d="M0 1760.5L0 1878.5L129 1766.5Z" fill="#112029" stroke="#112029"></path><path d="M984 901.7L956 1103.7L1076 1109.7Z" fill="#293842" stroke="#293842"></path><path d="M800 1074.7L780 975.7L626 1067.7Z" fill="#36454f" stroke="#36454f"></path><path d="M194 2397.3L332 2494.3L290 2342.3Z" fill="#303f48" stroke="#303f48"></path><path d="M290 2342.3L332 2494.3L479 2335.3Z" fill="#000000" stroke="#000000"></path><path d="M638 2635.3L830 2707.3L808 2496.3Z" fill="#1d2c35" stroke="#1d2c35"></path><path d="M1119 2839.2L1281 2677.3L1130 2628.3Z" fill="#03151d" stroke="#03151d"></path><path d="M0 1760.5L129 1766.5L133 1594.6Z" fill="#000000" stroke="#000000"></path><path d="M129 1766.5L0 1878.5L142 1866.5Z" fill="#17262f" stroke="#17262f"></path><path d="M0 1564.6L0 1760.5L133 1594.6Z" fill="#17262f" stroke="#17262f"></path><path d="M484 983.7L438 1059.7L626 1067.7Z" fill="#293842" stroke="#293842"></path><path d="M626 1067.7L438 1059.7L496 1214.7Z" fill="#112029" stroke="#112029"></path><path d="M308 1296.7L158 1240.7L281 1406.6Z" fill="#303f48" stroke="#303f48"></path><path d="M1281 2677.3L1440 2516.3L1263 2546.3Z" fill="#293842" stroke="#293842"></path><path d="M1263 2546.3L1440 2516.3L1268 2347.3Z" fill="#03151d" stroke="#03151d"></path><path d="M780 975.7L659 960.7L626 1067.7Z" fill="#293842" stroke="#293842"></path><path d="M0 2370.3L194 2397.3L173 2207.4Z" fill="#000000" stroke="#000000"></path><path d="M173 2207.4L194 2397.3L290 2342.3Z" fill="#000d18" stroke="#000d18"></path><path d="M328 928.7L292 1121.7L438 1059.7Z" fill="#000000" stroke="#000000"></path><path d="M438 1059.7L292 1121.7L496 1214.7Z" fill="#36454f" stroke="#36454f"></path><path d="M0 1878.5L0 2083.4L161 2018.4Z" fill="#03151d" stroke="#03151d"></path><path d="M127 1440.6L0 1564.6L133 1594.6Z" fill="#1d2c35" stroke="#1d2c35"></path><path d="M0 1426.6L0 1564.6L127 1440.6Z" fill="#303f48" stroke="#303f48"></path><path d="M1308 938.7L1163 941.7L1247 1097.7Z" fill="#0b1a23" stroke="#0b1a23"></path><path d="M1247 1097.7L1163 941.7L1076 1109.7Z" fill="#112029" stroke="#112029"></path><path d="M780 975.7L794 796.8L659 960.7Z" fill="#303f48" stroke="#303f48"></path><path d="M1163 941.7L984 901.7L1076 1109.7Z" fill="#000000" stroke="#000000"></path><path d="M292 1121.7L158 1240.7L308 1296.7Z" fill="#03151d" stroke="#03151d"></path><path d="M659 960.7L484 983.7L626 1067.7Z" fill="#23323b" stroke="#23323b"></path><path d="M645 770.8L484 983.7L659 960.7Z" fill="#17262f" stroke="#17262f"></path><path d="M1130 2628.3L1281 2677.3L1263 2546.3Z" fill="#0b1a23" stroke="#0b1a23"></path><path d="M1119 2839.2L1130 2628.3L1001 2659.3Z" fill="#36454f" stroke="#36454f"></path><path d="M1440 1221.7L1440 1067.7L1247 1097.7Z" fill="#23323b" stroke="#23323b"></path><path d="M0 2083.4L0 2176.4L173 2207.4Z" fill="#000d18" stroke="#000d18"></path><path d="M0 2370.3L187 2472.3L194 2397.3Z" fill="#112029" stroke="#112029"></path><path d="M194 2397.3L187 2472.3L332 2494.3Z" fill="#36454f" stroke="#36454f"></path><path d="M332 2494.3L463 2701.3L497 2500.3Z" fill="#17262f" stroke="#17262f"></path><path d="M638 2635.3L642 2811.2L830 2707.3Z" fill="#23323b" stroke="#23323b"></path><path d="M158 1240.7L0 1426.6L127 1440.6Z" fill="#112029" stroke="#112029"></path><path d="M286 2624.3L463 2701.3L332 2494.3Z" fill="#0b1a23" stroke="#0b1a23"></path><path d="M1440 1067.7L1308 938.7L1247 1097.7Z" fill="#1d2c35" stroke="#1d2c35"></path><path d="M1147 778.8L979 754.8L984 901.7Z" fill="#0b1a23" stroke="#0b1a23"></path><path d="M292 1121.7L183 1128.7L158 1240.7Z" fill="#36454f" stroke="#36454f"></path><path d="M158 1240.7L0 1220.7L0 1426.6Z" fill="#000000" stroke="#000000"></path><path d="M170 970.7L183 1128.7L292 1121.7Z" fill="#112029" stroke="#112029"></path><path d="M187 2472.3L286 2624.3L332 2494.3Z" fill="#36454f" stroke="#36454f"></path><path d="M463 2701.3L642 2811.2L638 2635.3Z" fill="#03151d" stroke="#03151d"></path><path d="M962 2866.2L1119 2839.2L1001 2659.3Z" fill="#17262f" stroke="#17262f"></path><path d="M462 2841.2L642 2811.2L463 2701.3Z" fill="#303f48" stroke="#303f48"></path><path d="M642 2811.2L782 2843.2L830 2707.3Z" fill="#0b1a23" stroke="#0b1a23"></path><path d="M1440 2810.2L1440 2693.3L1281 2677.3Z" fill="#17262f" stroke="#17262f"></path><path d="M1281 2677.3L1440 2693.3L1440 2516.3Z" fill="#03151d" stroke="#03151d"></path><path d="M979 754.8L794 796.8L984 901.7Z" fill="#0b1a23" stroke="#0b1a23"></path><path d="M984 901.7L794 796.8L780 975.7Z" fill="#112029" stroke="#112029"></path><path d="M484 983.7L328 928.7L438 1059.7Z" fill="#000000" stroke="#000000"></path><path d="M0 2176.4L0 2370.3L173 2207.4Z" fill="#0b1a23" stroke="#0b1a23"></path><path d="M187 2472.3L198 2639.3L286 2624.3Z" fill="#17262f" stroke="#17262f"></path><path d="M962 2866.2L1001 2659.3L830 2707.3Z" fill="#1d2c35" stroke="#1d2c35"></path><path d="M1440 1067.7L1440 946.7L1308 938.7Z" fill="#23323b" stroke="#23323b"></path><path d="M1147 778.8L984 901.7L1163 941.7Z" fill="#1d2c35" stroke="#1d2c35"></path><path d="M782 2843.2L962 2866.2L830 2707.3Z" fill="#112029" stroke="#112029"></path><path d="M496 746.8L328 928.7L484 983.7Z" fill="#000d18" stroke="#000d18"></path><path d="M0 2491.3L198 2639.3L187 2472.3Z" fill="#03151d" stroke="#03151d"></path><path d="M331 2793.2L462 2841.2L463 2701.3Z" fill="#0b1a23" stroke="#0b1a23"></path><path d="M0 1130.7L158 1240.7L183 1128.7Z" fill="#03151d" stroke="#03151d"></path><path d="M0 1130.7L0 1220.7L158 1240.7Z" fill="#293842" stroke="#293842"></path><path d="M1147 778.8L1163 941.7L1266 787.8Z" fill="#0b1a23" stroke="#0b1a23"></path><path d="M1266 787.8L1163 941.7L1308 938.7Z" fill="#23323b" stroke="#23323b"></path><path d="M815 616.8L645 770.8L794 796.8Z" fill="#000000" stroke="#000000"></path><path d="M794 796.8L645 770.8L659 960.7Z" fill="#303f48" stroke="#303f48"></path><path d="M331 2793.2L463 2701.3L286 2624.3Z" fill="#293842" stroke="#293842"></path><path d="M642 2811.2L656 2954.2L782 2843.2Z" fill="#0b1a23" stroke="#0b1a23"></path><path d="M782 2843.2L919 2978.2L962 2866.2Z" fill="#000d18" stroke="#000d18"></path><path d="M0 2370.3L0 2491.3L187 2472.3Z" fill="#303f48" stroke="#303f48"></path><path d="M198 2639.3L331 2793.2L286 2624.3Z" fill="#23323b" stroke="#23323b"></path><path d="M1440 818.8L1266 787.8L1308 938.7Z" fill="#293842" stroke="#293842"></path><path d="M972 601.8L815 616.8L979 754.8Z" fill="#000000" stroke="#000000"></path><path d="M1119 2839.2L1285 2859.2L1281 2677.3Z" fill="#000000" stroke="#000000"></path><path d="M1240 2977.2L1285 2859.2L1119 2839.2Z" fill="#17262f" stroke="#17262f"></path><path d="M292 790.8L170 970.7L328 928.7Z" fill="#112029" stroke="#112029"></path><path d="M328 928.7L170 970.7L292 1121.7Z" fill="#03151d" stroke="#03151d"></path><path d="M163 2841.2L331 2793.2L198 2639.3Z" fill="#1d2c35" stroke="#1d2c35"></path><path d="M170 970.7L0 1130.7L183 1128.7Z" fill="#293842" stroke="#293842"></path><path d="M1285 2859.2L1440 2810.2L1281 2677.3Z" fill="#36454f" stroke="#36454f"></path><path d="M645 770.8L496 746.8L484 983.7Z" fill="#03151d" stroke="#03151d"></path><path d="M681 588.8L496 746.8L645 770.8Z" fill="#17262f" stroke="#17262f"></path><path d="M472 2954.2L642 2811.2L462 2841.2Z" fill="#112029" stroke="#112029"></path><path d="M472 2954.2L656 2954.2L642 2811.2Z" fill="#23323b" stroke="#23323b"></path><path d="M962 2866.2L1105 2990.2L1119 2839.2Z" fill="#23323b" stroke="#23323b"></path><path d="M1440 946.7L1440 818.8L1308 938.7Z" fill="#03151d" stroke="#03151d"></path><path d="M842 3019.2L919 2978.2L782 2843.2Z" fill="#1d2c35" stroke="#1d2c35"></path><path d="M1285 2859.2L1440 3011.2L1440 2810.2Z" fill="#36454f" stroke="#36454f"></path><path d="M919 2978.2L1105 2990.2L962 2866.2Z" fill="#000000" stroke="#000000"></path><path d="M496 746.8L292 790.8L328 928.7Z" fill="#1d2c35" stroke="#1d2c35"></path><path d="M170 970.7L0 961.7L0 1130.7Z" fill="#293842" stroke="#293842"></path><path d="M656 2954.2L842 3019.2L782 2843.2Z" fill="#03151d" stroke="#03151d"></path><path d="M967 3155.1L1096 3136.1L1105 2990.2Z" fill="#23323b" stroke="#23323b"></path><path d="M355 3014.2L462 2841.2L331 2793.2Z" fill="#293842" stroke="#293842"></path><path d="M355 3014.2L472 2954.2L462 2841.2Z" fill="#112029" stroke="#112029"></path><path d="M656 2954.2L659 3109.1L842 3019.2Z" fill="#17262f" stroke="#17262f"></path><path d="M1440 3011.2L1240 2977.2L1249 3147.1Z" fill="#17262f" stroke="#17262f"></path><path d="M1105 2990.2L1240 2977.2L1119 2839.2Z" fill="#293842" stroke="#293842"></path><path d="M1127 635.8L979 754.8L1147 778.8Z" fill="#112029" stroke="#112029"></path><path d="M979 754.8L815 616.8L794 796.8Z" fill="#0b1a23" stroke="#0b1a23"></path><path d="M496 746.8L320 665.8L292 790.8Z" fill="#23323b" stroke="#23323b"></path><path d="M1127 635.8L1147 778.8L1276 667.8Z" fill="#000000" stroke="#000000"></path><path d="M0 2491.3L0 2661.3L198 2639.3Z" fill="#17262f" stroke="#17262f"></path><path d="M1276 667.8L1147 778.8L1266 787.8Z" fill="#303f48" stroke="#303f48"></path><path d="M1440 818.8L1276 667.8L1266 787.8Z" fill="#36454f" stroke="#36454f"></path><path d="M815 616.8L972 601.8L989 457.9Z" fill="#000d18" stroke="#000d18"></path><path d="M1127 635.8L972 601.8L979 754.8Z" fill="#36454f" stroke="#36454f"></path><path d="M129 813.8L0 961.7L170 970.7Z" fill="#303f48" stroke="#303f48"></path><path d="M0 2784.2L163 2841.2L198 2639.3Z" fill="#17262f" stroke="#17262f"></path><path d="M770 473.9L681 588.8L815 616.8Z" fill="#293842" stroke="#293842"></path><path d="M815 616.8L681 588.8L645 770.8Z" fill="#112029" stroke="#112029"></path><path d="M195 654.8L129 813.8L292 790.8Z" fill="#303f48" stroke="#303f48"></path><path d="M292 790.8L129 813.8L170 970.7Z" fill="#36454f" stroke="#36454f"></path><path d="M681 588.8L474 605.8L496 746.8Z" fill="#17262f" stroke="#17262f"></path><path d="M474 605.8L320 665.8L496 746.8Z" fill="#112029" stroke="#112029"></path><path d="M163 2841.2L355 3014.2L331 2793.2Z" fill="#000d18" stroke="#000d18"></path><path d="M474 3103.1L659 3109.1L656 2954.2Z" fill="#17262f" stroke="#17262f"></path><path d="M0 2661.3L0 2784.2L198 2639.3Z" fill="#0b1a23" stroke="#0b1a23"></path><path d="M163 2841.2L163 2990.2L355 3014.2Z" fill="#000d18" stroke="#000d18"></path><path d="M474 3103.1L656 2954.2L472 2954.2Z" fill="#293842" stroke="#293842"></path><path d="M842 3019.2L967 3155.1L919 2978.2Z" fill="#0b1a23" stroke="#0b1a23"></path><path d="M1249 3147.1L1240 2977.2L1105 2990.2Z" fill="#0b1a23" stroke="#0b1a23"></path><path d="M1240 2977.2L1440 3011.2L1285 2859.2Z" fill="#17262f" stroke="#17262f"></path><path d="M1440 818.8L1440 628.8L1276 667.8Z" fill="#000d18" stroke="#000d18"></path><path d="M1156 435.9L989 457.9L1127 635.8Z" fill="#23323b" stroke="#23323b"></path><path d="M659 3109.1L824 3146.1L842 3019.2Z" fill="#36454f" stroke="#36454f"></path><path d="M967 3155.1L1105 2990.2L919 2978.2Z" fill="#17262f" stroke="#17262f"></path><path d="M824 3146.1L967 3155.1L842 3019.2Z" fill="#000000" stroke="#000000"></path><path d="M785 3329.1L920 3281.1L824 3146.1Z" fill="#293842" stroke="#293842"></path><path d="M355 3014.2L474 3103.1L472 2954.2Z" fill="#112029" stroke="#112029"></path><path d="M337 3127.1L474 3103.1L355 3014.2Z" fill="#1d2c35" stroke="#1d2c35"></path><path d="M989 457.9L770 473.9L815 616.8Z" fill="#0b1a23" stroke="#0b1a23"></path><path d="M681 588.8L606 489.9L474 605.8Z" fill="#303f48" stroke="#303f48"></path><path d="M191 487.9L195 654.8L320 665.8Z" fill="#303f48" stroke="#303f48"></path><path d="M989 457.9L972 601.8L1127 635.8Z" fill="#36454f" stroke="#36454f"></path><path d="M296 440.9L320 665.8L474 605.8Z" fill="#23323b" stroke="#23323b"></path><path d="M320 665.8L195 654.8L292 790.8Z" fill="#17262f" stroke="#17262f"></path><path d="M129 813.8L0 767.8L0 961.7Z" fill="#0b1a23" stroke="#0b1a23"></path><path d="M770 473.9L606 489.9L681 588.8Z" fill="#293842" stroke="#293842"></path><path d="M0 2944.2L163 2990.2L163 2841.2Z" fill="#0b1a23" stroke="#0b1a23"></path><path d="M1113 3267.1L1249 3147.1L1096 3136.1Z" fill="#1d2c35" stroke="#1d2c35"></path><path d="M1096 3136.1L1249 3147.1L1105 2990.2Z" fill="#23323b" stroke="#23323b"></path><path d="M1283 496.9L1127 635.8L1276 667.8Z" fill="#1d2c35" stroke="#1d2c35"></path><path d="M195 654.8L0 767.8L129 813.8Z" fill="#23323b" stroke="#23323b"></path><path d="M1440 628.8L1283 496.9L1276 667.8Z" fill="#1d2c35" stroke="#1d2c35"></path><path d="M1249 3147.1L1440 3121.1L1440 3011.2Z" fill="#23323b" stroke="#23323b"></path><path d="M178 3110.1L337 3127.1L355 3014.2Z" fill="#1d2c35" stroke="#1d2c35"></path><path d="M785 3329.1L824 3146.1L659 3109.1Z" fill="#23323b" stroke="#23323b"></path><path d="M824 3146.1L920 3281.1L967 3155.1Z" fill="#303f48" stroke="#303f48"></path><path d="M1283 496.9L1156 435.9L1127 635.8Z" fill="#36454f" stroke="#36454f"></path><path d="M644 282.9L606 489.9L770 473.9Z" fill="#293842" stroke="#293842"></path><path d="M644 282.9L502 460.9L606 489.9Z" fill="#000d18" stroke="#000d18"></path><path d="M982 328.9L770 473.9L989 457.9Z" fill="#293842" stroke="#293842"></path><path d="M606 489.9L502 460.9L474 605.8Z" fill="#112029" stroke="#112029"></path><path d="M195 654.8L0 637.8L0 767.8Z" fill="#23323b" stroke="#23323b"></path><path d="M0 2784.2L0 2944.2L163 2841.2Z" fill="#293842" stroke="#293842"></path><path d="M163 2990.2L178 3110.1L355 3014.2Z" fill="#1d2c35" stroke="#1d2c35"></path><path d="M967 3155.1L1113 3267.1L1096 3136.1Z" fill="#112029" stroke="#112029"></path><path d="M1249 3147.1L1440 3294.1L1440 3121.1Z" fill="#36454f" stroke="#36454f"></path><path d="M785 3329.1L659 3109.1L613 3311.1Z" fill="#03151d" stroke="#03151d"></path><path d="M1440 628.8L1440 477.9L1283 496.9Z" fill="#000000" stroke="#000000"></path><path d="M1312 288.9L1129 343.9L1156 435.9Z" fill="#112029" stroke="#112029"></path><path d="M920 3281.1L1113 3267.1L967 3155.1Z" fill="#293842" stroke="#293842"></path><path d="M0 3158.1L178 3110.1L163 2990.2Z" fill="#293842" stroke="#293842"></path><path d="M613 3311.1L659 3109.1L487 3292.1Z" fill="#36454f" stroke="#36454f"></path><path d="M0 510.9L0 637.8L195 654.8Z" fill="#000d18" stroke="#000d18"></path><path d="M1129 343.9L989 457.9L1156 435.9Z" fill="#000d18" stroke="#000d18"></path><path d="M1129 343.9L982 328.9L989 457.9Z" fill="#03151d" stroke="#03151d"></path><path d="M1312 288.9L1156 435.9L1283 496.9Z" fill="#112029" stroke="#112029"></path><path d="M502 460.9L296 440.9L474 605.8Z" fill="#303f48" stroke="#303f48"></path><path d="M312 338.9L296 440.9L502 460.9Z" fill="#36454f" stroke="#36454f"></path><path d="M296 440.9L191 487.9L320 665.8Z" fill="#000000" stroke="#000000"></path><path d="M659 3109.1L474 3103.1L487 3292.1Z" fill="#293842" stroke="#293842"></path><path d="M1307 3422L1309 3333.1L1113 3267.1Z" fill="#23323b" stroke="#23323b"></path><path d="M487 3292.1L474 3103.1L337 3127.1Z" fill="#112029" stroke="#112029"></path><path d="M320 3258.1L487 3292.1L337 3127.1Z" fill="#000d18" stroke="#000d18"></path><path d="M179 3278.1L320 3258.1L178 3110.1Z" fill="#1d2c35" stroke="#1d2c35"></path><path d="M178 3110.1L320 3258.1L337 3127.1Z" fill="#03151d" stroke="#03151d"></path><path d="M603 184L764 290.9L816 116Z" fill="#1d2c35" stroke="#1d2c35"></path><path d="M982 328.9L764 290.9L770 473.9Z" fill="#17262f" stroke="#17262f"></path><path d="M764 290.9L644 282.9L770 473.9Z" fill="#23323b" stroke="#23323b"></path><path d="M126 303.9L0 510.9L191 487.9Z" fill="#303f48" stroke="#303f48"></path><path d="M1082 3484L1113 3267.1L920 3281.1Z" fill="#23323b" stroke="#23323b"></path><path d="M1113 3267.1L1309 3333.1L1249 3147.1Z" fill="#36454f" stroke="#36454f"></path><path d="M1309 3333.1L1440 3294.1L1249 3147.1Z" fill="#36454f" stroke="#36454f"></path><path d="M126 303.9L191 487.9L296 440.9Z" fill="#0b1a23" stroke="#0b1a23"></path><path d="M191 487.9L0 510.9L195 654.8Z" fill="#303f48" stroke="#303f48"></path><path d="M448 285.9L312 338.9L502 460.9Z" fill="#0b1a23" stroke="#0b1a23"></path><path d="M1440 477.9L1312 288.9L1283 496.9Z" fill="#0b1a23" stroke="#0b1a23"></path><path d="M1149 137L932 122L982 328.9Z" fill="#000000" stroke="#000000"></path><path d="M764 290.9L603 184L644 282.9Z" fill="#23323b" stroke="#23323b"></path><path d="M0 2944.2L0 3158.1L163 2990.2Z" fill="#112029" stroke="#112029"></path><path d="M644 282.9L448 285.9L502 460.9Z" fill="#36454f" stroke="#36454f"></path><path d="M1440 477.9L1440 315.9L1312 288.9Z" fill="#1d2c35" stroke="#1d2c35"></path><path d="M0 3158.1L179 3278.1L178 3110.1Z" fill="#36454f" stroke="#36454f"></path><path d="M461 3468L613 3311.1L487 3292.1Z" fill="#17262f" stroke="#17262f"></path><path d="M461 3468L643 3425L613 3311.1Z" fill="#0b1a23" stroke="#0b1a23"></path><path d="M613 3311.1L643 3425L785 3329.1Z" fill="#112029" stroke="#112029"></path><path d="M461 3468L487 3292.1L334 3470Z" fill="#1d2c35" stroke="#1d2c35"></path><path d="M785 3329.1L949 3488L920 3281.1Z" fill="#0b1a23" stroke="#0b1a23"></path><path d="M643 3425L784 3459L785 3329.1Z" fill="#112029" stroke="#112029"></path><path d="M1082 3484L1307 3422L1113 3267.1Z" fill="#23323b" stroke="#23323b"></path><path d="M1309 3333.1L1440 3461L1440 3294.1Z" fill="#000d18" stroke="#000d18"></path><path d="M784 3459L949 3488L785 3329.1Z" fill="#303f48" stroke="#303f48"></path><path d="M932 122L764 290.9L982 328.9Z" fill="#17262f" stroke="#17262f"></path><path d="M644 282.9L603 184L448 285.9Z" fill="#303f48" stroke="#303f48"></path><path d="M281 178L126 303.9L312 338.9Z" fill="#000d18" stroke="#000d18"></path><path d="M949 3488L1082 3484L920 3281.1Z" fill="#17262f" stroke="#17262f"></path><path d="M628 3610L777 3610L784 3459Z" fill="#000d18" stroke="#000d18"></path><path d="M777 3610L981 3610L949 3488Z" fill="#17262f" stroke="#17262f"></path><path d="M334 3470L487 3292.1L320 3258.1Z" fill="#03151d" stroke="#03151d"></path><path d="M334 3470L320 3258.1L172 3409Z" fill="#0b1a23" stroke="#0b1a23"></path><path d="M281 178L312 338.9L448 285.9Z" fill="#0b1a23" stroke="#0b1a23"></path><path d="M312 338.9L126 303.9L296 440.9Z" fill="#000000" stroke="#000000"></path><path d="M1282 164L1129 343.9L1312 288.9Z" fill="#1d2c35" stroke="#1d2c35"></path><path d="M1149 137L982 328.9L1129 343.9Z" fill="#03151d" stroke="#03151d"></path><path d="M1440 122L1282 164L1312 288.9Z" fill="#303f48" stroke="#303f48"></path><path d="M1282 164L1149 137L1129 343.9Z" fill="#112029" stroke="#112029"></path><path d="M932 122L816 116L764 290.9Z" fill="#293842" stroke="#293842"></path><path d="M603 184L504 148L448 285.9Z" fill="#293842" stroke="#293842"></path><path d="M0 3158.1L0 3297.1L179 3278.1Z" fill="#000d18" stroke="#000d18"></path><path d="M605 0L504 148L603 184Z" fill="#23323b" stroke="#23323b"></path><path d="M1307 3422L1440 3461L1309 3333.1Z" fill="#1d2c35" stroke="#1d2c35"></path><path d="M1303 3610L1440 3461L1307 3422Z" fill="#000d18" stroke="#000d18"></path><path d="M172 3409L320 3258.1L179 3278.1Z" fill="#23323b" stroke="#23323b"></path><path d="M777 3610L949 3488L784 3459Z" fill="#03151d" stroke="#03151d"></path><path d="M0 3297.1L172 3409L179 3278.1Z" fill="#000d18" stroke="#000d18"></path><path d="M504 148L281 178L448 285.9Z" fill="#293842" stroke="#293842"></path><path d="M149 190L0 306.9L126 303.9Z" fill="#293842" stroke="#293842"></path><path d="M126 303.9L0 306.9L0 510.9Z" fill="#17262f" stroke="#17262f"></path><path d="M949 3488L981 3610L1082 3484Z" fill="#293842" stroke="#293842"></path><path d="M1082 3484L1139 3610L1307 3422Z" fill="#0b1a23" stroke="#0b1a23"></path><path d="M784 3459L643 3425L628 3610Z" fill="#0b1a23" stroke="#0b1a23"></path><path d="M628 3610L643 3425L461 3468Z" fill="#000000" stroke="#000000"></path><path d="M163 0L149 190L281 178Z" fill="#000d18" stroke="#000d18"></path><path d="M281 178L149 190L126 303.9Z" fill="#303f48" stroke="#303f48"></path><path d="M951 0L831 0L932 122Z" fill="#0b1a23" stroke="#0b1a23"></path><path d="M932 122L831 0L816 116Z" fill="#000d18" stroke="#000d18"></path><path d="M1259 0L1143 0L1149 137Z" fill="#000d18" stroke="#000d18"></path><path d="M1440 315.9L1440 122L1312 288.9Z" fill="#03151d" stroke="#03151d"></path><path d="M486 3610L461 3468L358 3610Z" fill="#17262f" stroke="#17262f"></path><path d="M486 3610L628 3610L461 3468Z" fill="#17262f" stroke="#17262f"></path><path d="M981 3610L1139 3610L1082 3484Z" fill="#000000" stroke="#000000"></path><path d="M816 116L605 0L603 184Z" fill="#17262f" stroke="#17262f"></path><path d="M504 148L330 0L281 178Z" fill="#293842" stroke="#293842"></path><path d="M951 0L932 122L1149 137Z" fill="#03151d" stroke="#03151d"></path><path d="M1143 0L951 0L1149 137Z" fill="#303f48" stroke="#303f48"></path><path d="M358 3610L461 3468L334 3470Z" fill="#1d2c35" stroke="#1d2c35"></path><path d="M0 3297.1L0 3432L172 3409Z" fill="#293842" stroke="#293842"></path><path d="M170 3610L358 3610L334 3470Z" fill="#000000" stroke="#000000"></path><path d="M1139 3610L1303 3610L1307 3422Z" fill="#0b1a23" stroke="#0b1a23"></path><path d="M1259 0L1149 137L1282 164Z" fill="#1d2c35" stroke="#1d2c35"></path><path d="M831 0L605 0L816 116Z" fill="#303f48" stroke="#303f48"></path><path d="M170 3610L334 3470L172 3409Z" fill="#03151d" stroke="#03151d"></path><path d="M1440 122L1259 0L1282 164Z" fill="#03151d" stroke="#03151d"></path><path d="M605 0L489 0L504 148Z" fill="#293842" stroke="#293842"></path><path d="M1303 3610L1440 3610L1440 3461Z" fill="#03151d" stroke="#03151d"></path><path d="M489 0L330 0L504 148Z" fill="#17262f" stroke="#17262f"></path><path d="M149 190L0 132L0 306.9Z" fill="#112029" stroke="#112029"></path><path d="M1440 122L1440 0L1259 0Z" fill="#000000" stroke="#000000"></path><path d="M163 0L0 132L149 190Z" fill="#1d2c35" stroke="#1d2c35"></path><path d="M0 3432L170 3610L172 3409Z" fill="#23323b" stroke="#23323b"></path><path d="M330 0L163 0L281 178Z" fill="#03151d" stroke="#03151d"></path><path d="M0 3432L0 3610L170 3610Z" fill="#03151d" stroke="#03151d"></path><path d="M163 0L0 0L0 132Z" fill="#000d18" stroke="#000d18"></path></g></svg>